<svg xmlns="http://www.w3.org/2000/svg" viewBox="160 362.31 800 250.07"><path d="M0 0c0 2.006-.287 3.357-.842 4.042-.554.687-1.641 1.021-3.272 1.021h-1.467v2.441H12.65V5.063H7.074v-40.64c0-2.853.734-5.016 2.213-6.517 1.481-1.498 3.639-2.245 6.453-2.245 2.852 0 4.977.883 6.395 2.645 1.41 1.761 2.105 4.448 2.105 8.079V0c0 2.039-.276 3.402-.814 4.061-.54.668-1.611 1.002-3.209 1.002h-1.545v2.441h13.473V5.063h-5.574v-39.804c0-4.436-1.15-7.863-3.426-10.238-2.287-2.395-5.524-3.584-9.725-3.584-4.42 0-7.764 1.233-10.032 3.724C1.137-42.347 0-38.692 0-33.861Z" style="fill:#231f20;fill-opacity:1;fill-rule:nonzero;stroke:none" transform="matrix(3.54758 0 0 -3.54758 179.799 409.304)"/><path d="M0 0c0 2.006-.29 3.357-.833 4.042-.555.687-1.642 1.021-3.283 1.021h-1.465v2.441h27.542v3.612h2.533V-8.136h-2.533v3.526c0 3.495-.808 5.976-2.472 7.465-1.658 1.479-4.442 2.208-8.343 2.208H7.077V-8.211h6.506v7.535h2.494v-19.39h-2.494v3.942c0 1.75-.423 3.11-1.278 4.07-.85.971-2.041 1.446-3.556 1.446H7.077v-29.284c0-1.984.284-3.327.841-4.028.555-.701 1.628-1.043 3.228-1.043h2.522v-2.397H-5.581v2.397H0Z" style="fill:#231f20;fill-opacity:1;fill-rule:nonzero;stroke:none" transform="matrix(3.54758 0 0 -3.54758 488.167 409.304)"/><path d="M0 0c.872-.273 1.702-.496 2.527-.624.803-.146 1.658-.203 2.555-.203 1.44 0 2.88.129 4.326.408 1.457.284 2.933.709 4.417 1.299-1.471.425-2.872.74-4.229.966a24.59 24.59 0 0 1-3.94.336c-1.333 0-2.439-.187-3.333-.518A5.825 5.825 0 0 1 0 0m16.827 2.514c2.792 1.87 4.919 4.336 6.379 7.396 1.465 3.054 2.204 6.542 2.204 10.454a33.51 33.51 0 0 1-1.807 10.928 33.02 33.02 0 0 1-5.267 9.651c-2.549 3.214-5.355 5.623-8.401 7.223-3.04 1.614-6.39 2.42-10.012 2.42-5.48 0-9.911-2.009-13.318-6.015-3.404-4.006-5.101-9.317-5.101-15.905 0-6.349 1.479-12.057 4.434-17.142C-11.11 6.442-7.14 2.806-2.16.629v.425c0 1.145.485 2.028 1.459 2.651.958.624 2.334.949 4.119.949 1.327 0 2.972-.159 4.936-.455 1.97-.317 4.79-.872 8.473-1.685m.728-2.682A25.129 25.129 0 0 0 10.992-2.8c-2.348-.599-4.928-.88-7.745-.88-8.379 0-15.26 2.698-20.648 8.097-5.388 5.419-8.092 12.255-8.092 20.56 0 7.971 2.743 14.725 8.233 20.262 5.488 5.548 12.214 8.321 20.19 8.321 8.216 0 15.138-2.773 20.775-8.338 5.634-5.57 8.451-12.316 8.451-20.245 0-4.856-1.029-9.314-3.088-13.378-2.058-4.037-5.004-7.391-8.826-10.051 12.018-3.54 21.476-5.971 28.376-7.289 6.903-1.316 13.188-1.978 18.863-1.978 1.998 0 3.863.085 5.568.242 1.71.155 3.324.395 4.839.737l.734-1.388c-3.474-1.398-6.746-2.458-9.844-3.162-3.093-.72-5.968-1.073-8.63-1.073-5.554 0-14.755 2.354-27.614 7.047-6.362 2.314-11.359 4.039-14.979 5.148" style="fill:#231f20;fill-opacity:1;fill-rule:nonzero;stroke:none" transform="matrix(3.54758 0 0 -3.54758 681.082 568.53)"/><path d="M0 0s.03-.031.052-.086L0 0" style="fill:#ec1c24;fill-opacity:1;fill-rule:nonzero;stroke:none" transform="matrix(3.54758 0 0 -3.54758 352.482 567.198)"/><path d="m0 0-.008.075-.011-.022Z" style="fill:#ec1c24;fill-opacity:1;fill-rule:nonzero;stroke:none" transform="matrix(3.54758 0 0 -3.54758 402.653 388.907)"/><path d="M0 0c.025.061.064.127.091.185C.091.185.053.127 0 0" style="fill:#ec1c24;fill-opacity:1;fill-rule:nonzero;stroke:none" transform="matrix(3.54758 0 0 -3.54758 352.158 567.854)"/><path d="m0 0 .052-.036s0 .009-.022.031z" style="fill:#ec1c24;fill-opacity:1;fill-rule:nonzero;stroke:none" transform="matrix(3.54758 0 0 -3.54758 304.122 570.066)"/><path d="m0 0 .058.05Z" style="fill:#ec1c24;fill-opacity:1;fill-rule:nonzero;stroke:none" transform="matrix(3.54758 0 0 -3.54758 454.244 432.002)"/><path d="M0 0c.163.659.814 1.109.993 1.669.251.739.036 1.562-.488 2.055 0 0 .019.042 0 .089-.124-.116-.342.019-.466-.039l-.058-.05s-.036-.077-.022-.159c.011-.169.154-.458.088-.641C1.244 2.017-.207 1.015-.301.016-.422-1.595.764-1.418 1.164-1.093.461-1.253-.215-.977 0 0" style="fill:#ec1c24;fill-opacity:1;fill-rule:nonzero;stroke:none" transform="matrix(3.54758 0 0 -3.54758 454.312 445.215)"/><path d="M0 0c.259.025 2.582.414 2.061.949-.174.177-.557.116-.748.061-.659-.149-1.324 0-1.953.096C-.706.737-.756.359-.817-.02c.271-.008.555 0 .817.02" style="fill:#ec1c24;fill-opacity:1;fill-rule:nonzero;stroke:none" transform="matrix(3.54758 0 0 -3.54758 436.783 449.306)"/><path d="M0 0c-.273.312-.533.593-.792.869.111-.143.232-.303.337-.452Z" style="fill:#ec1c24;fill-opacity:1;fill-rule:nonzero;stroke:none" transform="matrix(3.54758 0 0 -3.54758 296.34 611.282)"/><path d="M0 0c.022-.041.025-.049 0 0" style="fill:#ec1c24;fill-opacity:1;fill-rule:nonzero;stroke:none" transform="matrix(3.54758 0 0 -3.54758 353.128 568.148)"/><path d="M0 0c.072.336.171.284.403.403C.522.452.96.8.894.966 1.043.563 1.035.11.607-.442.29-.483-.049-.425 0 0m-2.202-.596c-.496.232-.789.83-.8 1.377.011-.511 1.231-.218 1.463-.4.529-.436-.16-1.214-.663-.977m-3.556-2.701c-.378.124-.353.135-.692.389-.447.35-.726.621-1.065 1.104C-9.071.447-9.198.306-9.248 1.437c-.008.304.728-.03.963-.174C-7.742.946-7.262.524-6.776.141c.541-.431.866-.701 1.429-1.109-.364-.412-.425-1.151-.449-1.739-.031-.389-.011-.157.038-.59m-4.351 10.492a.806.806 0 0 0-.543.331c-.704.282-1.388.64-2.185.759.576 1.744 1.746 1.388 2.783.593h.139c.358-.041.617-.325.667-.69.414-.391.77-.797.977-1.031a3.956 3.956 0 0 0-1.523.069c-.102-.031-.215-.047-.315-.031m-.968-15.889c-2.469.116-4.139.056-5.438.668-.182.08.938-1.338 2.133-3.22-2.483 1.363-5.984 7.008-5.422 9.442 1.049-3.306 1.821-5.695 8.727-6.89M-21.945 2.905c-.813-3.997.458-7.866 3.383-10.796 0 0-6.729 3.019-3.383 10.796m-1.821-7.706c-.965 2.351-1.702 3.874-1.826 5.286-.016.194-.546-1.299-1.341-3.012-.085 2.753 2.342 7.819 4.255 8.073-1.838-2.031-3.173-3.524-1.088-10.347m-.273 11.811c-2.618-2.248-3.849-5.261-3.539-8.296 0 0-2.676 4.602 3.539 8.296m-4.687-2.232c-.398-1.912-.331-3.978-.557-5.429-1.405 4.673 1.371 8.886 3.644 8.718-.634-1.52-2.795-1.898-3.087-3.289M.833-.533c-.041.039.039.398.221.61l.058.05c.061.058.13.107.218.107.174.009.243-.03.248-.068l.05.052C1.432 1.688.21 2.544-1.247 1.854c-1.595 1.545-4.889 1.628-4.842 4.591.439.243 1.322.005 1.661.03-.328 1.576-1.225 3.137-3.286 2.864.806 3.28-4.24 1.581-4.961 3.537-.367-.058-.573-.339-.822-.577l.009-.074-.02.052.011.014-.008.097c.047 2.268 2.149 2.654 3.187 1.037-.205 1.363-3.228 1.727-3.819.527-.745 1.669.916.971-.226 2.455-1.479 1.824-3.92 2.823-6.125 3.314 1.664-.712 3.275-1.771 3.562-4.246-.921.739-1.611.601-1.611.601s.676-.438.129-1.241c-.121-.179-1.898.088-1.765-.094-1.358.411-2.213 2.315-3.383 2.922-2.182 1.272-6.401 2.171-8.619.695 2.475-.761 4.663-1.975 6.202-4.442-.96-.116-3.181-.334-3.33-1.639.673.152 1.711.268 2.155-.336-2.53-1.601-4.958-3.59-5.352-7.014 1.112.814 1.743 2.464 2.946 3.358.894.676 2.4.764 3.43.803-2.613-1.211-4.47-2.356-5.096-4.301-.32-.933-.138-2.025-1.04-2.718-.447-.389-.947.182-1.063-.069-.317-.706.632-1.023 1.179-1.291.725 1.095 1.89 3.118 2.273 5.471.618-1.749-.353-5.071-1.989-6.053-.158-.491-.585-1.388-.596-1.871 0-3.084 4.497-8.428.847-9.902 1.385-.894 2.927.687 3.697 1.65 1.249-1.302 1.835-2.563 3.357-3.173v-.03c.469-.524.886-3.548 6.078-4.596-.935.623-1.57 1.451-1.889 2.527l.099.088c2.624-1.437 4.182-2.373 4.668-2.817 1.617-1.553 2.417-3.592 2.392-6.114-.246-1.928-1.266-3.503-3.076-4.739 1.426-.298 4.569 1.845 4.569 1.845s-.533-.645-1.239-1.39c-2.133-1.705-2.748-2.737-6.329-1.675 1.153-.963 1.815-.993 2.254-1.186-.232-.224-2.458-1.493-3.719-1.145-2.384.648-3.603 1.465-4.282 3.89-.193.447-.039 1.402.416 2.853.632 1.473 1.587 2.4 2.839 2.753-2.234.143-4.259-.885-6.114-3.087-.904.805-2.013 1.512-3.343 2.086.645.273 1.655 1.018 3.6 1.23-.885.273-2.643.494-3.978.439-1.785-.1-2.859-.155-3.225-.147.273-.008 1.263 2.525 4.91 2.79-.736-.042-1.718.529-2.491.609a6.938 6.938 0 0 1-1.989-.154c-2.461-.516-4.809-1.857-6.768-3.388-6.767-5.319-10.445-15.213-9.896-23.628.038-.532.43-2.833.306-.83-.127 3.912 1.335 6.864 2.801 9.827-.723-8.674.86-9.308 3.713-12.432-2.754 3.844-3.73 6.247-2.218 14.413.524-3.561 2.033-7.791 4.591-9.618-2.105 3.102-5.306 10.559-1.94 13.685-.885-4.265 1.407-7.554 3.898-9.273-.468.458-.893.963-1.269 1.479l-.077.063.031-.005c-2.878 4.028-2.823 9.75 2.77 12.076 6.133 2.555 6.444-7.761 4.836-9.51-.292.071-2.48.524-3.112 1.42-.163-1.406 2.604-3.92 3.112-3.716 0 0-2.075-1.269-3.622-1.134-.732.019-2.059.298-3.984.864.022-.022.024-.039.024-.039 1.499-1.423 3.579-2.207 6.263-2.386 2.969-.229 5.391-.177 7.223 3.054.053.127.091.185.091.185.019-.031.039-.058.039-.058.041-.055.058-.066.058-.097l.022-.03.038-.05.025-.033c.025-.049.022-.041 0 0l-.025.033-.038.05-.022.03c0 .031-.017.042-.044.069a.276.276 0 0 1-.053.086c-.027-.058-.066-.124-.091-.185-.499-.888-2.8-5.115-4.638-10.059 6.983 8.596 9.858 5.203 13.842 6.665l.041-.118c-.455-.616-1.395-1.314-2.836-2.086 1.887.091 3.888.847 8.203 3.589.137-2.284 1.856-3.846 2.75-5.319.262 3.504 3.049 9.585 4.704 11.748l.119-.342c-.009-.055-.229-1.813-.676-5.24 2.091 3.706 3.967 5.405 4.472 7.706.282 1.269 1.112 5.253 1.095 6.445.296 4.867-.921 9.609-6.036 13.621-2.058.731-3.738 2.444-4.478 3.667.72-.224 1.341-.122 3.051 1.484-2.096-.309-2.64-.152-4.574.273-1.023.218-2 .555-3.203 1.283-1.297.789-1.658 2.513-2.29 3.882-.323.701-.706 1.445-.756 2.221 0 .071.028.196.011.265 0 0 .16-.864 1.956-.96 1.079-.056 1.84 1.095 2.875 1.197 1.479.171 2.93-1.142 3.73-1.86 1.404-1.269 1.89-3.512 3.725-4.292a4.66 4.66 0 0 1 1.399-.381c.049-.238.027-.431-.011-.682-.191-1.34-1.173-1.332-1.99-.781.345-.606 1.761-1.451 2.387.682.077.251.118.516.165.789h-.082l-.031 1.181a1.59 1.59 0 0 0 .29-.055c.105.574.265 1.123.623 1.63.425-.298.403-.339.856-.582a5.563 5.563 0 0 1 1.302-.494c.596-.127 1.275-.579 1.727.094.483.684.48 1.633 1.073 2.262 0 0 .031.031.047.061-.047.033-.077.05-.121.077 0 0-.105.064-.166.113" style="fill:#ec1c24;fill-opacity:1;fill-rule:nonzero;stroke:none" transform="matrix(3.54758 0 0 -3.54758 450.505 432.276)"/><path d="M0 0c-.088 0-.157-.05-.218-.108.124.058.342-.077.466.039C.243-.031.174.008 0 0" style="fill:#ec1c24;fill-opacity:1;fill-rule:nonzero;stroke:none" transform="matrix(3.54758 0 0 -3.54758 455.223 431.444)"/><path d="M0 0c-.014.083.011.124.011.124C-.16-.053-.24-.411-.199-.45c.061-.049.166-.113.166-.113C.011-.59.041-.607.088-.64.155-.458.011-.168 0 0" style="fill:#ec1c24;fill-opacity:1;fill-rule:nonzero;stroke:none" transform="matrix(3.54758 0 0 -3.54758 454.166 432.569)"/><path d="m0 0 .058.014c.085.364.135.742.201 1.112a1.58 1.58 0 0 1-.289.055Z" style="fill:#ec1c24;fill-opacity:1;fill-rule:nonzero;stroke:none" transform="matrix(3.54758 0 0 -3.54758 433.592 449.375)"/><path d="M0 0a.8.8 0 0 1 .544-.331.737.737 0 0 1 .314.03C.571-.221.279-.108 0 0" style="fill:#ec1c24;fill-opacity:1;fill-rule:nonzero;stroke:none" transform="matrix(3.54758 0 0 -3.54758 412.715 405.575)"/><path d="M0 0h-.138c.295-.204.563-.447.806-.69C.618-.325.359-.041 0 0" style="fill:#ec1c24;fill-opacity:1;fill-rule:nonzero;stroke:none" transform="matrix(3.54758 0 0 -3.54758 415.329 400.78)"/><path d="M0 0c.014.088.003.157-.011.248a5.926 5.926 0 0 1-.806.69C-1.183.927-1.512.612-1.57.182a1.004 1.004 0 0 1 .155-.596 9.08 9.08 0 0 1 .858-.3A.88.88 0 0 1 0 0" style="fill:#ec1c24;fill-opacity:1;fill-rule:nonzero;stroke:none" transform="matrix(3.54758 0 0 -3.54758 417.736 404.107)"/><path d="M0 0c.337.014.629.11.933.281.038.149.077.276.06.326C.955.69.817.778.648.863" style="fill:#ec1c24;fill-opacity:1;fill-rule:nonzero;stroke:none" transform="matrix(3.54758 0 0 -3.54758 334.17 432.824)"/><path d="M0 0c-.234-.414.083-1.035.704-1.366.607-.358 1.357-.212 1.52.089.204.355-.08 1.007-.698 1.36C.902.439.223.392 0 0" style="fill:#ec1c24;fill-opacity:1;fill-rule:nonzero;stroke:none" transform="matrix(3.54758 0 0 -3.54758 410.914 401.386)"/></svg>