<?xml version="1.0" encoding="utf-8"?>
<!-- Generator: Adobe Illustrator 14.0.0, SVG Export Plug-In . SVG Version: 6.00 Build 43363)  -->
<!DOCTYPE svg PUBLIC "-//W3C//DTD SVG 1.1//EN" "http://www.w3.org/Graphics/SVG/1.1/DTD/svg11.dtd">
<svg version="1.1" id="Capa_1" xmlns="http://www.w3.org/2000/svg" xmlns:xlink="http://www.w3.org/1999/xlink" x="0px" y="0px"
	 width="359.731px" height="189.67px" viewBox="0 0 359.731 189.67" enable-background="new 0 0 359.731 189.67"
	 xml:space="preserve">
<g>
	<defs>
		<rect id="SVGID_1_" y="0" width="359.731" height="189.67"/>
	</defs>
	<clipPath id="SVGID_2_">
		<use xlink:href="#SVGID_1_"  overflow="visible"/>
	</clipPath>
	<path clip-path="url(#SVGID_2_)" fill="#336F1E" d="M95.001,64.838H75.433c-1.832,0-3.381,1.548-3.381,3.38v75.975
		c0,15.308-6.549,22.438-20.51,22.438S31.03,159.5,31.03,144.193V68.218c0-1.832-1.548-3.38-3.38-3.38H8.082
		c-1.623,0-3.216,1.674-3.216,3.38v80.746c0,12.475,4.153,22.774,12.009,29.786c8.121,7.247,19.815,10.922,34.667,10.922
		s26.546-3.675,34.667-10.922c7.856-7.012,12.009-17.312,12.009-29.786V68.218C98.217,66.512,96.625,64.838,95.001,64.838"/>
	<path clip-path="url(#SVGID_2_)" fill="#336F1E" d="M351.344,64.838h-25.133c-1.03,0-2.433,0.617-3.127,1.484h-0.002l-30.711,36.61
		c-0.238,0.235-0.563,0.383-0.926,0.383h-0.236c-0.363,0-0.688-0.147-0.928-0.383l-30.709-36.61h-0.002
		c-0.695-0.867-2.097-1.484-3.127-1.484h-25.133c-1.623,0-3.217,1.674-3.217,3.38v114.468c0,1.706,1.594,3.38,3.217,3.38h19.568
		c1.832,0,3.381-1.548,3.381-3.38v-81.302l34.966,40.784c0.077,0.094,0.161,0.183,0.255,0.266l0.013,0.015v-0.002
		c0.48,0.428,1.124,0.691,1.833,0.691s1.354-0.264,1.833-0.691v0.002l0.015-0.015c0.093-0.083,0.177-0.172,0.254-0.266
		l34.967-40.784v81.302c0,1.832,1.548,3.38,3.381,3.38h19.568c1.623,0,3.216-1.674,3.216-3.38V68.218
		C354.56,66.512,352.967,64.838,351.344,64.838"/>
	<path clip-path="url(#SVGID_2_)" fill="#336F1E" d="M217.892,186.324H159.79v-4.571h25.434l-4.502-14.004l-7.689-23.328h-36.912
		l-8.221,23.349l-4.44,13.983h16.61v4.571h-38.307v-4.571h15.066l5.528-14.671l36.34-102.9h1.506l0.149,0.424l35.659,102.155
		l5.554,14.991h16.327V186.324z M137.711,139.159h33.718l-16.68-49.933L137.711,139.159z"/>
	<polygon clip-path="url(#SVGID_2_)" fill="#0080C6" points="187.625,3.733 177.176,64.561 228.095,43.077 228.095,3.733 	"/>
</g>
</svg>
