<?xml version="1.0" encoding="UTF-8"?>
<!DOCTYPE svg PUBLIC "-//W3C//DTD SVG 1.1//EN" "http://www.w3.org/Graphics/SVG/1.1/DTD/svg11.dtd">
<svg xmlns="http://www.w3.org/2000/svg" version="1.1" width="700px" height="356px" style="shape-rendering:geometricPrecision; text-rendering:geometricPrecision; image-rendering:optimizeQuality; fill-rule:evenodd; clip-rule:evenodd" xmlns:xlink="http://www.w3.org/1999/xlink">
<g><path style="opacity:1" fill="#0387cb" d="M 363.5,-0.5 C 390.167,-0.5 416.833,-0.5 443.5,-0.5C 443.667,24.5022 443.5,49.5022 443,74.5C 413.618,87.5193 384.118,100.353 354.5,113C 350.979,114.674 347.313,115.84 343.5,116.5C 349.691,77.4075 356.357,38.4075 363.5,-0.5 Z"/></g>
<g><path style="opacity:0.004" fill="#000000" d="M 146.5,115.5 C 145.833,114.167 145.833,114.167 146.5,115.5 Z"/></g>
<g><path style="opacity:1" fill="#296e2a" d="M 194.5,124.5 C 193.167,176.833 193.167,229.167 194.5,281.5C 194.328,309.639 182.328,330.805 158.5,345C 150.211,348.812 141.878,352.312 133.5,355.5C 114.833,355.5 96.1667,355.5 77.5,355.5C 60.4113,351.532 45.0779,343.532 31.5,331.5C 21.2753,319.412 15.2753,305.745 13.5,290.5C 14.8976,289.223 15.5643,287.557 15.5,285.5C 14.8457,230.68 14.1791,176.014 13.5,121.5C 13.5,120.833 13.5,120.167 13.5,119.5C 15.8309,119.502 17.8309,118.669 19.5,117C 32.8333,116.333 46.1667,116.333 59.5,117C 61.0609,117.318 62.2276,118.151 63,119.5C 63.3333,172.5 63.6667,225.5 64,278.5C 64.5334,280.939 65.7,281.605 67.5,280.5C 67.4109,289.496 71.0776,296.996 78.5,303C 81.4917,305.11 84.825,306.443 88.5,307C 88.1667,307.333 87.8333,307.667 87.5,308C 97.5849,310.859 108.252,310.859 119.5,308C 131.707,303.34 138.707,294.34 140.5,281C 141.231,277.049 141.898,273.049 142.5,269C 141.173,218.167 141.173,167.333 142.5,116.5C 144.099,116.768 145.432,116.434 146.5,115.5C 160.245,115.779 174.078,115.446 188,114.5C 189.737,115.62 191.571,116.62 193.5,117.5C 194.474,119.743 194.808,122.076 194.5,124.5 Z"/></g>
<g><path style="opacity:1" fill="#296f2a" d="M 540.5,161.5 C 539.414,161.62 538.747,162.287 538.5,163.5C 542.132,168.134 546.132,172.467 550.5,176.5C 552.643,179.758 554.31,183.258 555.5,187C 558.773,188.848 562.106,189.681 565.5,189.5C 566.845,188.653 567.845,187.487 568.5,186C 568.272,185.601 567.938,185.435 567.5,185.5C 569.082,182.412 571.248,179.746 574,177.5C 574.483,176.552 574.649,175.552 574.5,174.5C 575.552,174.649 576.552,174.483 577.5,174C 577.167,173.667 576.833,173.333 576.5,173C 586.595,161.024 597.262,148.857 608.5,136.5C 613.395,128.601 619.395,121.601 626.5,115.5C 644.151,115.78 662.151,115.447 680.5,114.5C 682.652,118.403 683.819,122.736 684,127.5C 684.667,199.167 684.667,270.833 684,342.5C 682.991,344.025 682.491,345.692 682.5,347.5C 667.83,347.667 653.163,347.5 638.5,347C 637.196,346.196 636.529,345.029 636.5,343.5C 637.754,341.666 638.421,339.666 638.5,337.5C 637.5,337.5 636.5,337.5 635.5,337.5C 636.162,289.488 635.495,241.822 633.5,194.5C 633.631,193.761 633.464,193.094 633,192.5C 632.333,193.833 631.667,193.833 631,192.5C 609.833,217.333 588.667,242.167 567.5,267C 566.127,267.875 564.627,268.375 563,268.5C 560.83,267.478 558.664,266.478 556.5,265.5C 536.975,240.021 516.308,215.355 494.5,191.5C 493.893,191.624 493.56,191.957 493.5,192.5C 492.82,243.694 492.153,295.027 491.5,346.5C 475.18,347.784 458.847,347.784 442.5,346.5C 442.167,345.833 441.833,345.167 441.5,344.5C 442.748,343.666 443.415,342.333 443.5,340.5C 442.846,267.677 442.179,195.01 441.5,122.5C 441.163,118.338 442.996,115.671 447,114.5C 464.835,115.617 482.668,115.783 500.5,115C 514.043,130.372 527.376,145.872 540.5,161.5 Z"/></g>
<g><path style="opacity:0.012" fill="#525252" d="M 194.5,124.5 C 194.516,177.055 194.516,229.388 194.5,281.5C 193.167,229.167 193.167,176.833 194.5,124.5 Z"/></g>
<g><path style="opacity:0.939" fill="#386236" d="M 67.5,280.5 C 65.7,281.605 64.5334,280.939 64,278.5C 63.6667,225.5 63.3333,172.5 63,119.5C 62.2276,118.151 61.0609,117.318 59.5,117C 46.1667,116.333 32.8333,116.333 19.5,117C 17.8309,118.669 15.8309,119.502 13.5,119.5C 14.6363,116.534 16.803,114.867 20,114.5C 33.1946,115.787 46.3612,115.787 59.5,114.5C 62.0942,115.592 64.2609,117.259 66,119.5C 66.1711,173.237 66.6711,226.904 67.5,280.5 Z"/></g>
<g><path style="opacity:0.129" fill="#346234" d="M 441.5,122.5 C 442.179,195.01 442.846,267.677 443.5,340.5C 443.415,342.333 442.748,343.666 441.5,344.5C 441.492,270.707 441.492,196.707 441.5,122.5 Z"/></g>
<g><path style="opacity:1" fill="#2d602d" d="M 540.5,161.5 C 547.459,170.792 555.125,179.459 563.5,187.5C 564.622,186.37 565.956,185.703 567.5,185.5C 567.938,185.435 568.272,185.601 568.5,186C 567.845,187.487 566.845,188.653 565.5,189.5C 562.106,189.681 558.773,188.848 555.5,187C 554.31,183.258 552.643,179.758 550.5,176.5C 546.132,172.467 542.132,168.134 538.5,163.5C 538.747,162.287 539.414,161.62 540.5,161.5 Z"/></g>
<g><path style="opacity:0.145" fill="#254523" d="M 493.5,192.5 C 494.657,243.459 494.824,294.459 494,345.5C 492.833,346.667 491.667,347.833 490.5,349C 475.167,349.667 459.833,349.667 444.5,349C 443.619,348.292 442.953,347.458 442.5,346.5C 458.847,347.784 475.18,347.784 491.5,346.5C 492.153,295.027 492.82,243.694 493.5,192.5 Z"/></g>
<g><path style="opacity:0.318" fill="#2e5e30" d="M 13.5,121.5 C 14.1791,176.014 14.8457,230.68 15.5,285.5C 15.5643,287.557 14.8976,289.223 13.5,290.5C 13.482,233.961 13.482,177.628 13.5,121.5 Z"/></g>
<g><path style="opacity:1" fill="#2a6d2a" d="M 310.5,350.5 C 310.658,347.098 310.324,343.764 309.5,340.5C 310.167,340.5 310.5,340.167 310.5,339.5C 310.833,339.5 311.167,339.5 311.5,339.5C 326.833,339.5 342.167,339.5 357.5,339.5C 354.815,326.946 350.815,314.779 345.5,303C 345.833,302.667 346.167,302.333 346.5,302C 344.042,296.714 342.209,291.214 341,285.5C 338.799,281.443 336.966,277.277 335.5,273C 335.833,272.667 336.167,272.333 336.5,272C 324.759,270.853 312.926,270.353 301,270.5C 289.593,270.505 278.259,270.838 267,271.5C 258.84,293.773 251.34,316.107 244.5,338.5C 254.132,338.472 263.798,338.806 273.5,339.5C 275.067,343.718 274.734,347.718 272.5,351.5C 251.891,350.531 231.057,350.531 210,351.5C 206.065,350.862 202.231,350.196 198.5,349.5C 198.421,348.07 198.754,346.736 199.5,345.5C 199.145,344.478 198.478,343.811 197.5,343.5C 197.5,341.833 197.5,340.167 197.5,338.5C 206.729,338.341 216.062,338.674 225.5,339.5C 227.271,338.965 227.604,338.131 226.5,337C 228.7,334.39 230.534,331.557 232,328.5C 245.808,288.437 260.141,248.104 275,207.5C 285.949,176.519 296.782,145.352 307.5,114C 309.769,113.242 311.936,113.409 314,114.5C 339.371,188.01 365.038,261.344 391,334.5C 391.899,336.516 393.233,338.183 395,339.5C 405.011,338.498 415.177,338.165 425.5,338.5C 424.873,341.734 424.873,344.901 425.5,348C 425.07,349.434 424.236,350.601 423,351.5C 385.496,351.159 347.996,350.826 310.5,350.5 Z M 330.5,255.5 C 329.391,256.29 328.058,256.79 326.5,257C 309.503,257.5 292.503,257.667 275.5,257.5C 273.594,254.844 273.094,251.844 274,248.5C 278.64,235.847 283.307,223.18 288,210.5C 289.417,206.01 290.917,201.51 292.5,197C 291.742,195.636 292.242,194.469 294,193.5C 295.736,185.132 298.403,177.132 302,169.5C 312.028,198.084 321.528,226.751 330.5,255.5 Z"/></g>
<g><path style="opacity:0.86" fill="#275829" d="M 330.5,255.5 C 331.791,256.542 331.791,257.708 330.5,259C 311.833,259.667 293.167,259.667 274.5,259C 275.056,258.617 275.389,258.117 275.5,257.5C 292.503,257.667 309.503,257.5 326.5,257C 328.058,256.79 329.391,256.29 330.5,255.5 Z"/></g>
<g><path style="opacity:0.212" fill="#2a5b29" d="M 680.5,114.5 C 683.341,115.842 685.341,118.009 686.5,121C 685.167,195.333 685.167,269.667 686.5,344C 684.902,347.795 682.402,349.962 679,350.5C 664.563,349.841 650.063,349.174 635.5,348.5C 634.855,347.354 634.022,346.354 633,345.5C 633.356,294.968 633.523,244.635 633.5,194.5C 635.495,241.822 636.162,289.488 635.5,337.5C 636.5,337.5 637.5,337.5 638.5,337.5C 638.421,339.666 637.754,341.666 636.5,343.5C 636.529,345.029 637.196,346.196 638.5,347C 653.163,347.5 667.83,347.667 682.5,347.5C 682.491,345.692 682.991,344.025 684,342.5C 684.667,270.833 684.667,199.167 684,127.5C 683.819,122.736 682.652,118.403 680.5,114.5 Z"/></g>
<g><path style="opacity:0.004" fill="#262b2b" d="M 197.5,343.5 C 198.478,343.811 199.145,344.478 199.5,345.5C 198.754,346.736 198.421,348.07 198.5,349.5C 197.539,347.735 197.205,345.735 197.5,343.5 Z"/></g>
<g><path style="opacity:0.012" fill="#3d4a40" d="M 311.5,339.5 C 311.167,339.5 310.833,339.5 310.5,339.5C 309.833,339.5 309.5,339.833 309.5,340.5C 310.324,343.764 310.658,347.098 310.5,350.5C 309.883,350.389 309.383,350.056 309,349.5C 308.501,345.848 308.335,342.182 308.5,338.5C 309.791,338.263 310.791,338.596 311.5,339.5 Z"/></g>
</svg>
